HIERARCHY
ROOT Hips
{
	OFFSET 0.000000 0.000000 0.000000
	CHANNELS 6 Xposition Yposition Zposition Xrotation Yrotation Zrotation
	JOINT LeftUpLeg_virtual
	{
		OFFSET 0.000000 0.000000 0.000000
		CHANNELS 3 Xrotation Yrotation Zrotation
		JOINT LeftUpLeg
		{
			OFFSET 11.394100 -6.187798 -0.413800
			CHANNELS 3 Xrotation Yrotation Zrotation
			JOINT LeftLeg
			{
				OFFSET 0.430247 -32.302673 3.732800
				CHANNELS 3 Xrotation Yrotation Zrotation
				JOINT LeftFoot
				{
					OFFSET -0.430247 -48.264931 -6.423300
					CHANNELS 3 Xrotation Yrotation Zrotation
					JOINT LeftToeBase
					{
						OFFSET 4.230900 -16.068199 23.438400
						CHANNELS 3 Xrotation Yrotation Zrotation
						JOINT LeftToe_End
						{
							OFFSET 4.510700 0.695400 19.974600
							CHANNELS 3 Xrotation Yrotation Zrotation
							End Site
							{
								OFFSET 0 0 0
							}
						}
					}
				}
			}
		}
	}
	JOINT RightUpLeg_virtual
	{
		OFFSET 0.000000 0.000000 0.000000
		CHANNELS 3 Xrotation Yrotation Zrotation
		JOINT RightUpLeg
		{
			OFFSET -11.333700 -6.187798 -0.413800
			CHANNELS 3 Xrotation Yrotation Zrotation
			JOINT RightLeg
			{
				OFFSET -0.430392 -32.302628 3.733000
				CHANNELS 3 Xrotation Yrotation Zrotation
				JOINT RightFoot
				{
					OFFSET 0.430392 -48.264973 -6.423500
					CHANNELS 3 Xrotation Yrotation Zrotation
					JOINT RightToeBase
					{
						OFFSET -4.230900 -16.068199 23.438400
						CHANNELS 3 Xrotation Yrotation Zrotation
						JOINT RightToe_End
						{
							OFFSET -4.510700 0.695400 19.974600
							CHANNELS 3 Xrotation Yrotation Zrotation
							End Site
							{
								OFFSET 0 0 0
							}
						}
					}
				}
			}
		}
	}
	JOINT Spine_virtual
	{
		OFFSET 0.000000 0.000000 0.000000
		CHANNELS 3 Xrotation Yrotation Zrotation
		JOINT Spine
		{
			OFFSET -0.002400 12.777504 0.315300
			CHANNELS 3 Xrotation Yrotation Zrotation
			JOINT Spine1
			{
				OFFSET -0.002067 5.816869 0.032633
				CHANNELS 3 Xrotation Yrotation Zrotation
				JOINT Spine1_split
				{
					OFFSET -0.002067 5.816869 0.032633
					CHANNELS 3 Xrotation Yrotation Zrotation
					JOINT Spine2
					{
						OFFSET -0.002067 5.816869 0.032633
						CHANNELS 3 Xrotation Yrotation Zrotation
						JOINT Neck_virtual
						{
							OFFSET 0.000000 0.000000 0.000000
							CHANNELS 3 Xrotation Yrotation Zrotation
							JOINT Neck
							{
								OFFSET -0.003700 21.199493 -0.826900
								CHANNELS 3 Xrotation Yrotation Zrotation
								JOINT Head
								{
									OFFSET 0.000000 20.442200 4.834800
									CHANNELS 3 Xrotation Yrotation Zrotation
									JOINT HeadTop_End
									{
										OFFSET 0.000000 34.668396 4.968400
										CHANNELS 3 Xrotation Yrotation Zrotation
										End Site
										{
											OFFSET 0 0 0
										}
									}
								}
							}
						}
						JOINT LeftShoulder_virtual
						{
							OFFSET 0.000000 0.000000 0.000000
							CHANNELS 3 Xrotation Yrotation Zrotation
							JOINT LeftShoulder
							{
								OFFSET 3.288150 8.794197 -1.372250
								CHANNELS 3 Xrotation Yrotation Zrotation
								JOINT LeftShoulder_split
								{
									OFFSET 3.288150 8.794197 -1.372250
									CHANNELS 3 Xrotation Yrotation Zrotation
									JOINT LeftArm
									{
										OFFSET 11.953299 -2.279007 -0.146200
										CHANNELS 3 Xrotation Yrotation Zrotation
										JOINT LeftForeArm
										{
											OFFSET 18.448900 0.000000 0.000000
											CHANNELS 3 Xrotation Yrotation Zrotation
											JOINT LeftHand
											{
												OFFSET 29.527798 0.000000 0.000000
												CHANNELS 3 Xrotation Yrotation Zrotation
												End Site
												{
													OFFSET 0 0 0
												}
											}
										}
									}
								}
							}
						}
						JOINT RightShoulder_virtual
						{
							OFFSET 0.000000 0.000000 0.000000
							CHANNELS 3 Xrotation Yrotation Zrotation
							JOINT RightShoulder
							{
								OFFSET -3.249400 8.794197 -1.372250
								CHANNELS 3 Xrotation Yrotation Zrotation
								JOINT RightShoulder_split
								{
									OFFSET -3.249400 8.794197 -1.372250
									CHANNELS 3 Xrotation Yrotation Zrotation
									JOINT RightArm
									{
										OFFSET -11.953299 -2.279007 -0.146200
										CHANNELS 3 Xrotation Yrotation Zrotation
										JOINT RightForeArm
										{
											OFFSET -18.448900 0.000000 0.000000
											CHANNELS 3 Xrotation Yrotation Zrotation
											JOINT RightHand
											{
												OFFSET -29.527802 0.000000 0.000000
												CHANNELS 3 Xrotation Yrotation Zrotation
												End Site
												{
													OFFSET 0 0 0
												}
											}
										}
									}
								}
							}
						}
					}
				}
			}
		}
	}
}
MOTION
Frames: 10
Frame Time: 0.03333333
-0.640249 92.173683 33.488335 0.000000 0.000000 0.000000 31.106444 11.165211 -12.994449 -92.962693 3.057790 19.585805 50.962849 9.043227 -7.899175 17.348489 -5.120280 15.667231 0.901775 1.000051 9.259266 0.000000 0.000000 0.000000 32.510645 13.986639 -14.742277 -10.578586 -29.696600 -18.293009 68.866714 18.403359 -8.384269 14.524836 -27.439131 17.411585 -9.927405 10.907833 -2.106240 0.000000 0.000000 0.000000 32.934896 21.025663 -18.141981 5.470112 7.163279 -11.480099 10.807967 10.977917 -5.747581 0.231203 0.410649 0.023370 0.000000 0.000000 0.000000 14.863946 12.163385 -6.708166 -21.852311 3.071320 18.633472 -25.180102 -47.230662 27.871232 0.000000 0.000000 0.000000 11.755057 11.061985 -6.252745 -0.466787 3.161278 -0.827429 5.368184 0.677964 -0.444269 14.359906 -41.226977 -24.713545 -17.625459 -24.767053 -8.262444 0.000000 0.000000 0.000000 13.148812 10.993474 -5.645619 -0.705544 15.783942 -11.070850 1.436488 0.970649 0.371263 -31.132494 57.772370 55.151711 -18.927468 26.763200 1.233744 0.000000 0.000000 0.000000 
-0.819089 91.532867 34.799675 0.000000 0.000000 0.000000 29.316702 13.209301 -12.745457 -90.654649 3.867866 18.646480 52.042811 9.753737 -7.911441 14.080216 -4.798199 14.827946 1.378019 0.836147 8.967267 0.000000 0.000000 0.000000 30.793061 15.368450 -14.333990 -13.353559 -27.700628 -17.344972 66.310994 19.013587 -8.750516 12.593244 -26.250604 15.862133 -9.953665 11.040755 -5.799056 0.000000 0.000000 0.000000 31.339732 22.356406 -17.922379 5.544609 4.932044 -12.220971 10.407112 9.689278 -5.239045 0.167707 0.493892 -0.041386 0.000000 0.000000 0.000000 14.272512 10.913033 -6.112224 -21.403460 3.474141 17.388895 -27.072011 -42.722591 29.080558 0.000000 0.000000 0.000000 11.060509 9.907478 -5.782163 -0.432212 5.169247 -0.657304 5.803322 -0.440270 -0.852758 14.447172 -45.705068 -15.570258 -16.617167 -22.884942 -7.046328 0.000000 0.000000 0.000000 12.716884 9.804614 -5.114433 -0.873475 15.055094 -11.045336 1.477799 1.408338 0.929396 -26.405996 54.612150 46.906638 -17.836861 25.787063 -1.552344 0.000000 0.000000 0.000000 
-0.845494 91.187622 36.356682 0.000000 0.000000 0.000000 27.565320 14.562889 -12.496947 -87.804903 4.585780 17.320342 52.859759 10.393682 -7.608661 10.947145 -4.356795 13.970329 2.213289 0.716047 8.060322 0.000000 0.000000 0.000000 28.880092 16.480487 -14.067763 -15.787549 -25.667122 -16.125658 63.480092 19.470108 -8.948494 11.549112 -24.821778 14.081100 -11.101314 10.664711 -7.675385 0.000000 0.000000 0.000000 29.469230 23.385922 -17.675746 5.685274 2.860586 -12.817320 10.109328 8.130772 -4.943940 0.091377 0.574239 -0.079310 0.000000 0.000000 0.000000 13.841469 9.398692 -5.772177 -20.803522 4.053062 15.890380 -28.161328 -38.114699 31.133792 0.000000 0.000000 0.000000 10.615250 8.435393 -5.511234 -0.407391 6.949576 -0.223605 6.388904 -1.353448 -1.179857 12.372722 -50.139657 -7.916293 -15.617796 -20.793924 -6.150487 0.000000 0.000000 0.000000 12.545440 8.354944 -4.825722 -0.807967 14.434650 -11.854386 1.400372 1.503865 0.935436 -22.917076 51.551491 40.042824 -17.032663 25.035490 -3.853504 0.000000 0.000000 0.000000 
-0.762673 91.211266 37.984108 0.000000 0.000000 0.000000 25.794215 15.328744 -12.414965 -84.413632 5.194431 16.028723 53.584299 10.833922 -7.006053 8.225054 -3.882480 13.202277 3.066911 0.614387 6.633846 0.000000 0.000000 0.000000 26.784163 17.356399 -13.955838 -18.254031 -23.849402 -15.070930 60.342126 19.963825 -9.067693 12.196191 -22.826530 12.988598 -13.357447 9.978595 -8.185189 0.000000 0.000000 0.000000 27.304810 24.118072 -17.477214 5.909613 0.942612 -13.178784 9.960055 6.317752 -4.847066 0.098372 0.587779 -0.081896 0.000000 0.000000 0.000000 13.519511 7.644201 -5.659344 -19.957599 4.824859 14.195282 -28.457104 -33.261095 33.787126 0.000000 0.000000 0.000000 10.503969 6.649893 -5.424652 -0.402066 8.224051 0.452993 6.896178 -2.006043 -1.490946 7.472889 -54.116617 -2.823875 -14.522381 -18.408051 -5.498470 0.000000 0.000000 0.000000 12.600795 6.617947 -4.747975 -0.535110 13.941310 -13.478292 1.500259 1.653011 0.692751 -20.200129 48.536523 34.039750 -16.617138 24.805883 -5.468060 0.000000 0.000000 0.000000 
-0.630054 91.571098 39.635380 0.000000 0.000000 0.000000 24.070717 15.614289 -12.600635 -80.773797 5.844238 15.249289 54.216037 11.064533 -6.168363 5.897277 -3.569331 12.589372 3.746979 0.511177 4.908986 0.000000 0.000000 0.000000 24.753854 18.042098 -14.122424 -20.514980 -22.510951 -14.129906 56.102385 20.392872 -8.991518 13.258133 -20.390364 12.378581 -15.783447 9.298106 -8.506131 0.000000 0.000000 0.000000 24.889870 24.544020 -17.442292 6.207839 -0.824194 -13.200127 9.946157 4.333481 -4.865887 0.145647 0.537184 -0.064473 0.000000 0.000000 0.000000 13.239146 5.728548 -5.673400 -18.761821 5.783868 12.395520 -28.251305 -28.200753 36.688542 0.000000 0.000000 0.000000 10.707954 4.617312 -5.399858 -0.412776 8.832337 1.336707 7.342606 -2.334144 -1.647841 -0.398846 -57.139727 -1.071038 -13.262036 -15.908848 -5.007014 0.000000 0.000000 0.000000 12.835863 4.668096 -4.798287 -0.091128 13.557303 -15.624951 1.963342 2.006972 0.392490 -18.758703 45.623867 29.062134 -16.658374 25.182534 -6.264659 0.000000 0.000000 0.000000 
-0.437980 92.161583 41.173813 0.000000 0.000000 0.000000 22.355397 15.501543 -13.143825 -77.160162 6.682121 15.257743 54.604890 11.011056 -5.125636 3.979786 -3.548888 12.058397 4.131166 0.394715 3.202477 0.000000 0.000000 0.000000 22.814256 18.354798 -14.593768 -22.292880 -21.763230 -13.157071 50.304125 20.670953 -8.579852 13.515320 -17.815613 11.830644 -17.324425 8.941714 -9.543826 0.000000 0.000000 0.000000 22.344392 24.576890 -17.586354 6.518567 -2.479380 -12.855594 10.053157 2.253671 -4.868653 0.207910 0.466404 -0.038306 0.000000 0.000000 0.000000 12.985286 3.725548 -5.662614 -17.286056 6.810242 10.616784 -27.910784 -22.933663 39.438079 0.000000 0.000000 0.000000 11.100448 2.466207 -5.295760 -0.425013 8.820414 2.389044 7.455943 -2.587537 -1.815586 -10.614838 -59.010300 -2.464859 -11.745650 -13.572429 -4.639511 0.000000 0.000000 0.000000 13.108569 2.585789 -4.821970 0.446176 13.357109 -17.938257 2.499200 2.213743 0.312680 -19.829861 43.029768 25.787449 -17.221873 25.869261 -6.211022 0.000000 0.000000 0.000000 
-0.194608 92.989975 42.633945 0.000000 0.000000 0.000000 20.464556 14.846500 -13.957731 -73.753025 7.842042 16.067018 54.571220 10.568658 -3.872683 2.366390 -3.929073 11.444829 4.213239 0.271066 1.823651 0.000000 0.000000 0.000000 21.009867 18.277262 -15.383697 -23.523364 -21.623020 -12.116193 43.288223 20.644139 -7.863432 12.690945 -15.402758 11.464268 -16.683425 9.025208 -11.729012 0.000000 0.000000 0.000000 19.840270 24.143416 -17.910404 6.760996 -3.983696 -12.167378 10.215732 0.199667 -4.763385 0.258774 0.413541 -0.020862 0.000000 0.000000 0.000000 12.735598 1.743921 -5.519892 -15.692624 7.802320 8.957405 -27.762081 -17.576020 41.718976 0.000000 0.000000 0.000000 11.552781 0.361861 -5.008628 -0.409470 8.321359 3.550138 7.430424 -2.709657 -1.658794 -21.659437 -59.754422 -5.985365 -9.996103 -11.672015 -4.373180 0.000000 0.000000 0.000000 13.331273 0.505694 -4.695589 0.897837 13.253299 -19.929770 3.223516 2.449487 0.655124 -24.144495 40.804554 24.697310 -18.342352 26.731378 -5.323016 0.000000 0.000000 0.000000 
0.135963 94.079582 43.909733 0.000000 0.000000 0.000000 18.558792 13.787587 -14.977048 -70.648137 9.331380 17.413887 54.041768 9.902466 -2.442680 0.935235 -4.564403 10.751846 4.313744 0.139699 0.862884 0.000000 0.000000 0.000000 19.131442 17.635291 -16.352118 -24.747082 -21.900805 -11.188282 35.855239 20.221438 -6.974517 11.960465 -13.157702 11.964698 -13.975755 9.421101 -15.109690 0.000000 0.000000 0.000000 17.564684 23.223340 -18.392101 6.889767 -5.302360 -11.175011 10.380680 -1.713668 -4.510257 0.271369 0.361047 -0.017321 0.000000 0.000000 0.000000 12.498169 -0.094062 -5.190330 -14.190436 8.713981 7.481768 -28.036543 -12.443209 43.340088 0.000000 0.000000 0.000000 11.943837 -1.550274 -4.514312 -0.341094 7.533607 4.732677 7.411265 -2.963678 -1.174164 -32.036849 -59.748979 -10.379151 -8.142874 -10.398309 -4.255006 0.000000 0.000000 0.000000 13.444610 -1.423639 -4.376118 1.218783 13.276363 -21.248286 3.853016 2.398417 1.370170 -32.128059 38.551111 26.211746 -20.004950 27.388367 -3.682115 0.000000 0.000000 0.000000 
0.492247 95.439140 45.016525 0.000000 0.000000 0.000000 16.791491 12.453736 -16.159463 -67.856379 11.091928 19.006040 52.985022 9.129834 -0.897076 -0.407555 -5.229811 9.944256 4.682943 -0.013683 0.212651 0.000000 0.000000 0.000000 17.287602 16.595157 -17.395127 -26.499648 -22.152738 -10.621380 28.747214 19.890378 -6.093760 12.420330 -10.648567 14.284437 -10.931360 9.908772 -19.095396 0.000000 0.000000 0.000000 15.716991 21.849359 -19.019714 6.884045 -6.380452 -9.903242 10.510023 -3.377792 -4.120861 0.280017 0.318837 -0.036960 0.000000 0.000000 0.000000 12.296691 -1.693712 -4.680165 -13.021183 9.538041 6.255083 -28.678100 -7.654685 44.265845 0.000000 0.000000 0.000000 12.208921 -3.169574 -3.893701 -0.203396 6.664096 5.850130 7.391285 -3.187643 -0.537814 -40.990936 -59.460587 -14.805994 -6.398362 -9.762266 -4.296340 0.000000 0.000000 0.000000 13.413174 -3.099372 -3.890612 1.370794 13.508812 -21.662500 4.066638 2.015324 1.942654 -43.090670 35.323959 30.053413 -22.086253 27.581996 -1.484118 0.000000 0.000000 0.000000 
0.869024 97.035614 45.830162 0.000000 0.000000 0.000000 15.302091 10.924201 -17.372545 -65.299265 13.114429 20.567271 51.416271 8.364642 0.662848 -1.780752 -5.815268 8.969424 5.232165 -0.190332 -0.217347 0.000000 0.000000 0.000000 15.683825 15.340239 -18.439282 -28.755486 -21.959625 -10.270036 22.308323 19.756392 -5.325672 13.708273 -7.919184 17.780232 -8.487572 10.328231 -22.829935 0.000000 0.000000 0.000000 14.229913 20.101245 -19.682546 6.782696 -7.170611 -8.426283 10.604588 -4.728462 -3.662395 0.281691 0.314496 -0.081487 0.000000 0.000000 0.000000 12.149825 -2.990638 -4.078446 -12.223095 10.239919 5.260219 -29.636809 -3.308009 44.585129 0.000000 0.000000 0.000000 12.357242 -4.462779 -3.260812 -0.012674 5.833378 6.908469 7.374218 -3.460108 0.342550 -48.462924 -59.135129 -18.918051 -5.032001 -9.840698 -4.509621 0.000000 0.000000 0.000000 13.285032 -4.448240 -3.328294 1.337899 13.895373 -21.201010 4.126472 1.594893 2.002291 -55.040161 30.490880 35.003196 -24.407763 27.481944 1.067224 0.000000 0.000000 0.000000 
